<svg width="232" height="205" viewBox="0 0 232 205" fill="none" xmlns="http://www.w3.org/2000/svg">
<path fill-rule="evenodd" clip-rule="evenodd" d="M121 92.5L121.521 93.3886C119.912 96.4025 119 99.8447 119 103.5C119 115.228 128.391 124.764 140.064 124.996L143 130L97.5 167.5L96.8978 166.808C96.9655 165.881 97 164.945 97 164C97 143.832 81.2885 127.334 61.4376 126.077L60.5 125L121 92.5Z" fill="#FFA800"/>
<path fill-rule="evenodd" clip-rule="evenodd" d="M106 35L115.17 35.5631C120.824 43.1136 129.841 48 140 48C148.792 48 156.728 44.3403 162.37 38.4613L163 38.5L160 90.5L157.801 90.7339C153.885 85.4357 147.594 82 140.5 82C131.777 82 124.267 87.195 120.896 94.66L113 95.5L106 35Z" fill="#FFA800"/>
<g filter="url(#filter0_d_118_1452)">
<circle cx="188" cy="65" r="40" fill="#FFA800"/>
<path fill-rule="evenodd" clip-rule="evenodd" d="M182.438 61.8125C182.438 58.1881 185.376 55.25 189 55.25C192.624 55.25 195.562 58.1881 195.562 61.8125C195.562 65.4369 192.624 68.375 189 68.375C185.376 68.375 182.438 65.4369 182.438 61.8125Z" fill="white"/>
<path fill-rule="evenodd" clip-rule="evenodd" d="M195.562 67.0625C195.562 64.163 197.913 61.8125 200.812 61.8125C203.712 61.8125 206.062 64.163 206.062 67.0625C206.062 69.962 203.712 72.3125 200.812 72.3125C197.913 72.3125 195.562 69.962 195.562 67.0625Z" fill="white"/>
<path fill-rule="evenodd" clip-rule="evenodd" d="M171.938 67.0625C171.938 64.163 174.288 61.8125 177.188 61.8125C180.087 61.8125 182.438 64.163 182.438 67.0625C182.438 69.962 180.087 72.3125 177.188 72.3125C174.288 72.3125 171.938 69.962 171.938 67.0625Z" fill="white"/>
<path fill-rule="evenodd" clip-rule="evenodd" d="M179.042 76.4557C181.139 73.1777 184.815 71 189 71C193.186 71 196.862 73.1783 198.959 76.4569C200.408 78.7235 201.035 81.4566 200.741 84.1214C200.695 84.5378 200.453 84.9073 200.089 85.1158C196.821 86.9908 193.034 88.0625 189 88.0625C184.966 88.0625 181.179 86.9908 177.911 85.1158C177.547 84.9073 177.305 84.5378 177.259 84.1214C176.965 81.4561 177.592 78.7225 179.042 76.4557Z" fill="white"/>
<path d="M176.894 74.9439C176.873 74.9763 176.852 75.0088 176.831 75.0413C175.142 77.6831 174.368 80.8292 174.606 83.9308C173.542 83.7691 172.509 83.5092 171.518 83.1602L171.317 83.0893C170.95 82.9601 170.694 82.6268 170.663 82.2389L170.646 82.0263C170.632 81.8524 170.625 81.6769 170.625 81.5C170.625 77.974 173.406 75.0975 176.894 74.9439Z" fill="white"/>
<path d="M203.395 83.9307C203.632 80.8297 202.859 77.6843 201.17 75.0428C201.149 75.0098 201.128 74.9768 201.107 74.944C204.595 75.0978 207.375 77.9742 207.375 81.5C207.375 81.6769 207.368 81.8525 207.354 82.0263L207.337 82.2389C207.306 82.6268 207.05 82.9601 206.683 83.0893L206.482 83.1602C205.491 83.5091 204.459 83.769 203.395 83.9307Z" fill="white"/>
</g>
<circle cx="135" cy="165" r="40" fill="#FFA800"/>
<path d="M128.75 160.625C128.75 156.828 131.828 153.75 135.625 153.75C139.422 153.75 142.5 156.828 142.5 160.625C142.5 164.422 139.422 167.5 135.625 167.5C131.828 167.5 128.75 164.422 128.75 160.625Z" fill="white"/>
<path d="M123.75 181.875C123.75 175.317 129.067 170 135.625 170C142.183 170 147.5 175.317 147.5 181.875V181.879C147.5 181.946 147.499 182.012 147.498 182.078C147.491 182.509 147.262 182.906 146.893 183.128C143.601 185.11 139.744 186.25 135.625 186.25C131.506 186.25 127.649 185.11 124.357 183.128C123.988 182.906 123.759 182.509 123.752 182.078C123.751 182.011 123.75 181.943 123.75 181.875Z" fill="white"/>
<path d="M151.25 162.5C151.25 161.81 150.69 161.25 150 161.25C149.31 161.25 148.75 161.81 148.75 162.5V166.25H145C144.31 166.25 143.75 166.81 143.75 167.5C143.75 168.19 144.31 168.75 145 168.75H148.75V172.5C148.75 173.19 149.31 173.75 150 173.75C150.69 173.75 151.25 173.19 151.25 172.5V168.75H155C155.69 168.75 156.25 168.19 156.25 167.5C156.25 166.81 155.69 166.25 155 166.25H151.25V162.5Z" fill="white"/>
<path fill-rule="evenodd" clip-rule="evenodd" d="M70 13.125C38.5888 13.125 13.125 38.5888 13.125 70C13.125 101.411 38.5888 126.875 70 126.875C101.411 126.875 126.875 101.411 126.875 70C126.875 38.5888 101.411 13.125 70 13.125ZM74.375 52.5C74.375 50.0838 72.4162 48.125 70 48.125C67.5838 48.125 65.625 50.0838 65.625 52.5V65.625H52.5C50.0838 65.625 48.125 67.5838 48.125 70C48.125 72.4162 50.0838 74.375 52.5 74.375H65.625V87.5C65.625 89.9162 67.5838 91.875 70 91.875C72.4162 91.875 74.375 89.9162 74.375 87.5V74.375H87.5C89.9162 74.375 91.875 72.4162 91.875 70C91.875 67.5838 89.9162 65.625 87.5 65.625H74.375V52.5Z" fill="#FDDA81"/>
<circle cx="70" cy="70" r="54.5" stroke="#FFA800" stroke-width="5"/>
<defs>
<filter id="filter0_d_118_1452" x="144" y="25" width="88" height="88" filterUnits="userSpaceOnUse" color-interpolation-filters="sRGB">
<feFlood flood-opacity="0" result="BackgroundImageFix"/>
<feColorMatrix in="SourceAlpha" type="matrix" values="0 0 0 0 0 0 0 0 0 0 0 0 0 0 0 0 0 0 127 0" result="hardAlpha"/>
<feOffset dy="4"/>
<feGaussianBlur stdDeviation="2"/>
<feComposite in2="hardAlpha" operator="out"/>
<feColorMatrix type="matrix" values="0 0 0 0 0 0 0 0 0 0 0 0 0 0 0 0 0 0 0.25 0"/>
<feBlend mode="normal" in2="BackgroundImageFix" result="effect1_dropShadow_118_1452"/>
<feBlend mode="normal" in="SourceGraphic" in2="effect1_dropShadow_118_1452" result="shape"/>
</filter>
</defs>
</svg>
