<svg width="228" height="228" viewBox="0 0 228 228" fill="none" xmlns="http://www.w3.org/2000/svg">
<g filter="url(#filter0_d_122_1435)">
<circle cx="109" cy="109" r="99" fill="#FFA800"/>
</g>
<g filter="url(#filter1_d_122_1435)">
<circle cx="187.5" cy="50.5" r="18.5" fill="#FCFCFC"/>
</g>
<path fill-rule="evenodd" clip-rule="evenodd" d="M104.312 102.438C104.312 99.8487 106.411 97.75 109 97.75C111.589 97.75 113.688 99.8487 113.688 102.438C113.688 105.026 111.589 107.125 109 107.125C106.411 107.125 104.312 105.026 104.312 102.438Z" fill="white"/>
<path fill-rule="evenodd" clip-rule="evenodd" d="M113.688 106.188C113.688 104.116 115.366 102.438 117.438 102.438C119.509 102.438 121.188 104.116 121.188 106.188C121.188 108.259 119.509 109.938 117.438 109.938C115.366 109.938 113.688 108.259 113.688 106.188Z" fill="white"/>
<path fill-rule="evenodd" clip-rule="evenodd" d="M96.8125 106.188C96.8125 104.116 98.4914 102.438 100.562 102.438C102.634 102.438 104.312 104.116 104.312 106.188C104.312 108.259 102.634 109.938 100.562 109.938C98.4914 109.938 96.8125 108.259 96.8125 106.188Z" fill="white"/>
<path fill-rule="evenodd" clip-rule="evenodd" d="M101.887 112.897C103.385 110.556 106.01 109 109 109C111.99 109 114.616 110.556 116.113 112.898C117.148 114.517 117.596 116.469 117.386 118.372C117.353 118.67 117.181 118.934 116.921 119.083C114.587 120.422 111.881 121.188 109 121.188C106.119 121.188 103.413 120.422 101.079 119.083C100.819 118.934 100.647 118.67 100.614 118.372C100.404 116.469 100.852 114.516 101.887 112.897Z" fill="white"/>
<path d="M100.353 111.817C100.338 111.84 100.323 111.863 100.308 111.887C99.1011 113.774 98.5488 116.021 98.7184 118.236C97.9583 118.121 97.2209 117.935 96.513 117.686L96.3693 117.635C96.1072 117.543 95.924 117.305 95.902 117.028L95.8899 116.876C95.88 116.752 95.875 116.626 95.875 116.5C95.875 113.981 97.8613 111.927 100.353 111.817Z" fill="white"/>
<path d="M119.282 118.236C119.452 116.021 118.9 113.774 117.693 111.888C117.678 111.864 117.663 111.841 117.648 111.817C120.139 111.927 122.125 113.982 122.125 116.5C122.125 116.626 122.12 116.752 122.11 116.876L122.098 117.028C122.076 117.305 121.893 117.543 121.631 117.635L121.487 117.686C120.779 117.935 120.042 118.121 119.282 118.236Z" fill="white"/>
<path fill-rule="evenodd" clip-rule="evenodd" d="M185 174.75C172.436 174.75 162.25 164.564 162.25 152C162.25 139.436 172.436 129.25 185 129.25C197.564 129.25 207.75 139.436 207.75 152C207.75 164.564 197.564 174.75 185 174.75ZM186.75 159C186.75 159.966 185.966 160.75 185 160.75C184.034 160.75 183.25 159.966 183.25 159V153.75H178C177.034 153.75 176.25 152.966 176.25 152C176.25 151.034 177.034 150.25 178 150.25H183.25V145C183.25 144.034 184.034 143.25 185 143.25C185.966 143.25 186.75 144.034 186.75 145V150.25H192C192.966 150.25 193.75 151.034 193.75 152C193.75 152.966 192.966 153.75 192 153.75H186.75V159Z" fill="white"/>
<circle cx="22.8" cy="22.8" r="20.3" transform="matrix(1 0 0 -1 162.2 174.8)" stroke="#FFA800" stroke-width="5"/>
<path fill-rule="evenodd" clip-rule="evenodd" d="M170.844 50.5C170.844 41.301 178.301 33.8438 187.5 33.8438C196.699 33.8438 204.156 41.301 204.156 50.5C204.156 59.699 196.699 67.1562 187.5 67.1562C178.301 67.1562 170.844 59.699 170.844 50.5ZM185.717 48.0374C187.675 47.0583 189.88 48.8269 189.349 50.9508L188.138 55.7957L188.209 55.7603C188.841 55.4438 189.611 55.7004 189.928 56.3333C190.244 56.9662 189.987 57.7358 189.355 58.0523L189.284 58.0877C187.325 59.0668 185.121 57.2981 185.652 55.1742L186.863 50.3293L186.792 50.3648C186.159 50.6812 185.39 50.4247 185.073 49.7918C184.757 49.1589 185.013 48.3892 185.646 48.0728L185.717 48.0374ZM187.5 45.375C188.208 45.375 188.781 44.8014 188.781 44.0938C188.781 43.3861 188.208 42.8125 187.5 42.8125C186.792 42.8125 186.219 43.3861 186.219 44.0938C186.219 44.8014 186.792 45.375 187.5 45.375Z" fill="#1C3488"/>
<defs>
<filter id="filter0_d_122_1435" x="0" y="0" width="228" height="228" filterUnits="userSpaceOnUse" color-interpolation-filters="sRGB">
<feFlood flood-opacity="0" result="BackgroundImageFix"/>
<feColorMatrix in="SourceAlpha" type="matrix" values="0 0 0 0 0 0 0 0 0 0 0 0 0 0 0 0 0 0 127 0" result="hardAlpha"/>
<feOffset dx="5" dy="5"/>
<feGaussianBlur stdDeviation="7.5"/>
<feComposite in2="hardAlpha" operator="out"/>
<feColorMatrix type="matrix" values="0 0 0 0 0 0 0 0 0 0 0 0 0 0 0 0 0 0 0.2 0"/>
<feBlend mode="normal" in2="BackgroundImageFix" result="effect1_dropShadow_122_1435"/>
<feBlend mode="normal" in="SourceGraphic" in2="effect1_dropShadow_122_1435" result="shape"/>
</filter>
<filter id="filter1_d_122_1435" x="159" y="22" width="67" height="67" filterUnits="userSpaceOnUse" color-interpolation-filters="sRGB">
<feFlood flood-opacity="0" result="BackgroundImageFix"/>
<feColorMatrix in="SourceAlpha" type="matrix" values="0 0 0 0 0 0 0 0 0 0 0 0 0 0 0 0 0 0 127 0" result="hardAlpha"/>
<feOffset dx="5" dy="5"/>
<feGaussianBlur stdDeviation="7.5"/>
<feComposite in2="hardAlpha" operator="out"/>
<feColorMatrix type="matrix" values="0 0 0 0 0 0 0 0 0 0 0 0 0 0 0 0 0 0 0.2 0"/>
<feBlend mode="normal" in2="BackgroundImageFix" result="effect1_dropShadow_122_1435"/>
<feBlend mode="normal" in="SourceGraphic" in2="effect1_dropShadow_122_1435" result="shape"/>
</filter>
</defs>
</svg>
