<svg width="88" height="88" viewBox="0 0 88 88" fill="none" xmlns="http://www.w3.org/2000/svg">
<g filter="url(#filter0_d_5_1555)">
<circle cx="44" cy="40" r="40" fill="#FFA800"/>
<path fill-rule="evenodd" clip-rule="evenodd" d="M38.4375 36.8125C38.4375 33.1881 41.3756 30.25 45 30.25C48.6244 30.25 51.5625 33.1881 51.5625 36.8125C51.5625 40.4369 48.6244 43.375 45 43.375C41.3756 43.375 38.4375 40.4369 38.4375 36.8125Z" fill="white"/>
<path fill-rule="evenodd" clip-rule="evenodd" d="M51.5625 42.0625C51.5625 39.163 53.913 36.8125 56.8125 36.8125C59.712 36.8125 62.0625 39.163 62.0625 42.0625C62.0625 44.962 59.712 47.3125 56.8125 47.3125C53.913 47.3125 51.5625 44.962 51.5625 42.0625Z" fill="white"/>
<path fill-rule="evenodd" clip-rule="evenodd" d="M27.9375 42.0625C27.9375 39.163 30.288 36.8125 33.1875 36.8125C36.087 36.8125 38.4375 39.163 38.4375 42.0625C38.4375 44.962 36.087 47.3125 33.1875 47.3125C30.288 47.3125 27.9375 44.962 27.9375 42.0625Z" fill="white"/>
<path fill-rule="evenodd" clip-rule="evenodd" d="M35.0423 51.4557C37.1387 48.1777 40.8146 46 45 46C49.1859 46 52.8622 48.1783 54.9585 51.4569C56.4078 53.7235 57.0348 56.4566 56.7407 59.1214C56.6947 59.5378 56.4527 59.9073 56.0893 60.1158C52.8215 61.9908 49.0339 63.0625 45 63.0625C40.9661 63.0625 37.1785 61.9908 33.9107 60.1158C33.5473 59.9073 33.3053 59.5378 33.2593 59.1214C32.9651 56.4561 33.5925 53.7225 35.0423 51.4557Z" fill="white"/>
<path d="M32.894 49.9439C32.8729 49.9763 32.852 50.0088 32.8312 50.0413C31.1416 52.6831 30.3684 55.8292 30.6057 58.9308C29.5417 58.7691 28.5092 58.5092 27.5182 58.1602L27.3171 58.0893C26.9501 57.9601 26.6936 57.6268 26.6628 57.2389L26.6459 57.0263C26.632 56.8524 26.625 56.6769 26.625 56.5C26.625 52.974 29.4058 50.0975 32.894 49.9439Z" fill="white"/>
<path d="M59.3949 58.9307C59.6322 55.8298 58.8593 52.6843 57.1704 50.0428C57.1493 50.0098 57.128 49.9768 57.1066 49.944C60.5945 50.0978 63.375 52.9742 63.375 56.5C63.375 56.6769 63.368 56.8525 63.3541 57.0263L63.3372 57.2389C63.3064 57.6268 63.0499 57.9601 62.6829 58.0893L62.4818 58.1602C61.491 58.5091 60.4587 58.769 59.3949 58.9307Z" fill="white"/>
</g>
<defs>
<filter id="filter0_d_5_1555" x="0" y="0" width="88" height="88" filterUnits="userSpaceOnUse" color-interpolation-filters="sRGB">
<feFlood flood-opacity="0" result="BackgroundImageFix"/>
<feColorMatrix in="SourceAlpha" type="matrix" values="0 0 0 0 0 0 0 0 0 0 0 0 0 0 0 0 0 0 127 0" result="hardAlpha"/>
<feOffset dy="4"/>
<feGaussianBlur stdDeviation="2"/>
<feComposite in2="hardAlpha" operator="out"/>
<feColorMatrix type="matrix" values="0 0 0 0 0 0 0 0 0 0 0 0 0 0 0 0 0 0 0.25 0"/>
<feBlend mode="normal" in2="BackgroundImageFix" result="effect1_dropShadow_5_1555"/>
<feBlend mode="normal" in="SourceGraphic" in2="effect1_dropShadow_5_1555" result="shape"/>
</filter>
</defs>
</svg>
