<svg width="80" height="80" viewBox="0 0 80 80" fill="none" xmlns="http://www.w3.org/2000/svg">
<circle cx="40" cy="40" r="40" fill="#FFA800"/>
<path d="M33.75 35.625C33.75 31.828 36.828 28.75 40.625 28.75C44.422 28.75 47.5 31.828 47.5 35.625C47.5 39.422 44.422 42.5 40.625 42.5C36.828 42.5 33.75 39.422 33.75 35.625Z" fill="white"/>
<path d="M28.75 56.875C28.75 50.3166 34.0666 45 40.625 45C47.1834 45 52.5 50.3166 52.5 56.875V56.8793C52.5 56.9456 52.4994 57.0123 52.4983 57.0782C52.491 57.5091 52.2624 57.9058 51.8932 58.1281C48.6012 60.1102 44.7443 61.25 40.625 61.25C36.5057 61.25 32.6488 60.1102 29.3568 58.1281C28.9876 57.9058 28.759 57.5091 28.7517 57.0782C28.7506 57.0106 28.75 56.9429 28.75 56.875Z" fill="white"/>
<path d="M56.25 37.5C56.25 36.8096 55.6904 36.25 55 36.25C54.3096 36.25 53.75 36.8096 53.75 37.5V41.25H50C49.3096 41.25 48.75 41.8096 48.75 42.5C48.75 43.1904 49.3096 43.75 50 43.75H53.75V47.5C53.75 48.1904 54.3096 48.75 55 48.75C55.6904 48.75 56.25 48.1904 56.25 47.5V43.75H60C60.6904 43.75 61.25 43.1904 61.25 42.5C61.25 41.8096 60.6904 41.25 60 41.25H56.25V37.5Z" fill="white"/>
</svg>
