<svg width="140" height="140" viewBox="0 0 140 140" fill="none" xmlns="http://www.w3.org/2000/svg">
<path fill-rule="evenodd" clip-rule="evenodd" d="M70 13.125C38.5888 13.125 13.125 38.5888 13.125 70C13.125 101.411 38.5888 126.875 70 126.875C101.411 126.875 126.875 101.411 126.875 70C126.875 38.5888 101.411 13.125 70 13.125ZM74.375 52.5C74.375 50.0838 72.4162 48.125 70 48.125C67.5838 48.125 65.625 50.0838 65.625 52.5V65.625H52.5C50.0838 65.625 48.125 67.5838 48.125 70C48.125 72.4162 50.0838 74.375 52.5 74.375H65.625V87.5C65.625 89.9162 67.5838 91.875 70 91.875C72.4162 91.875 74.375 89.9162 74.375 87.5V74.375H87.5C89.9162 74.375 91.875 72.4162 91.875 70C91.875 67.5838 89.9162 65.625 87.5 65.625H74.375V52.5Z" fill="#FFA800"/>
</svg>
