<svg width="56" height="56" viewBox="0 0 56 56" fill="none" xmlns="http://www.w3.org/2000/svg">
<path fill-rule="evenodd" clip-rule="evenodd" d="M28 50.75C15.4355 50.75 5.25 40.5645 5.25 28C5.25 15.4355 15.4355 5.25 28 5.25C40.5645 5.25 50.75 15.4355 50.75 28C50.75 40.5645 40.5645 50.75 28 50.75ZM29.75 35C29.75 35.9665 28.9665 36.75 28 36.75C27.0335 36.75 26.25 35.9665 26.25 35V29.75H21C20.0335 29.75 19.25 28.9665 19.25 28C19.25 27.0335 20.0335 26.25 21 26.25H26.25V21C26.25 20.0335 27.0335 19.25 28 19.25C28.9665 19.25 29.75 20.0335 29.75 21V26.25H35C35.9665 26.25 36.75 27.0335 36.75 28C36.75 28.9665 35.9665 29.75 35 29.75H29.75V35Z" fill="white"/>
<circle cx="22.8" cy="22.8" r="20.3" transform="matrix(1 0 0 -1 5.19995 50.8)" stroke="#FFA800" stroke-width="5"/>
</svg>
