<svg width="72" height="72" viewBox="0 0 72 72" fill="none" xmlns="http://www.w3.org/2000/svg">
<g filter="url(#filter0_d_5_1550)">
<circle cx="31" cy="31" r="21" fill="#FFA800"/>
</g>
<path fill-rule="evenodd" clip-rule="evenodd" d="M41.5852 42.2371C44.5726 39.4219 46.4375 35.4288 46.4375 31C46.4375 22.4741 39.5259 15.5625 31 15.5625C22.4741 15.5625 15.5625 22.4741 15.5625 31C15.5625 35.4288 17.4274 39.4219 20.4148 42.2371C23.1785 44.8414 26.9029 46.4375 31 46.4375C35.0971 46.4375 38.8215 44.8414 41.5852 42.2371ZM21.7298 40.2028C23.9061 37.4882 27.25 35.75 31 35.75C34.75 35.75 38.0939 37.4882 40.2702 40.2028C37.9038 42.5865 34.6243 44.0625 31 44.0625C27.3757 44.0625 24.0962 42.5865 21.7298 40.2028ZM36.9375 26.25C36.9375 29.5292 34.2792 32.1875 31 32.1875C27.7208 32.1875 25.0625 29.5292 25.0625 26.25C25.0625 22.9708 27.7208 20.3125 31 20.3125C34.2792 20.3125 36.9375 22.9708 36.9375 26.25Z" fill="white"/>
<defs>
<filter id="filter0_d_5_1550" x="0" y="0" width="72" height="72" filterUnits="userSpaceOnUse" color-interpolation-filters="sRGB">
<feFlood flood-opacity="0" result="BackgroundImageFix"/>
<feColorMatrix in="SourceAlpha" type="matrix" values="0 0 0 0 0 0 0 0 0 0 0 0 0 0 0 0 0 0 127 0" result="hardAlpha"/>
<feOffset dx="5" dy="5"/>
<feGaussianBlur stdDeviation="7.5"/>
<feComposite in2="hardAlpha" operator="out"/>
<feColorMatrix type="matrix" values="0 0 0 0 0 0 0 0 0 0 0 0 0 0 0 0 0 0 0.2 0"/>
<feBlend mode="normal" in2="BackgroundImageFix" result="effect1_dropShadow_5_1550"/>
<feBlend mode="normal" in="SourceGraphic" in2="effect1_dropShadow_5_1550" result="shape"/>
</filter>
</defs>
</svg>
