<svg width="228" height="228" viewBox="0 0 228 228" fill="none" xmlns="http://www.w3.org/2000/svg">
<g filter="url(#filter0_d_5_1578)">
<circle cx="109" cy="109" r="99" fill="#FFA800"/>
</g>
<path fill-rule="evenodd" clip-rule="evenodd" d="M104.312 102.438C104.312 99.8487 106.411 97.75 109 97.75C111.589 97.75 113.688 99.8487 113.688 102.438C113.688 105.026 111.589 107.125 109 107.125C106.411 107.125 104.312 105.026 104.312 102.438Z" fill="white"/>
<path fill-rule="evenodd" clip-rule="evenodd" d="M113.688 106.188C113.688 104.116 115.366 102.438 117.438 102.438C119.509 102.438 121.188 104.116 121.188 106.188C121.188 108.259 119.509 109.938 117.438 109.938C115.366 109.938 113.688 108.259 113.688 106.188Z" fill="white"/>
<path fill-rule="evenodd" clip-rule="evenodd" d="M96.8125 106.188C96.8125 104.116 98.4914 102.438 100.562 102.438C102.634 102.438 104.312 104.116 104.312 106.188C104.312 108.259 102.634 109.938 100.562 109.938C98.4914 109.938 96.8125 108.259 96.8125 106.188Z" fill="white"/>
<path fill-rule="evenodd" clip-rule="evenodd" d="M101.887 112.897C103.385 110.556 106.01 109 109 109C111.99 109 114.616 110.556 116.113 112.898C117.148 114.517 117.596 116.469 117.386 118.372C117.353 118.67 117.181 118.934 116.921 119.083C114.587 120.422 111.881 121.188 109 121.188C106.119 121.188 103.413 120.422 101.079 119.083C100.819 118.934 100.647 118.67 100.614 118.372C100.404 116.469 100.852 114.516 101.887 112.897Z" fill="white"/>
<path d="M100.353 111.817C100.338 111.84 100.323 111.863 100.308 111.887C99.1011 113.774 98.5488 116.021 98.7184 118.236C97.9583 118.121 97.2209 117.935 96.513 117.686L96.3693 117.635C96.1072 117.543 95.924 117.305 95.902 117.028L95.8899 116.876C95.88 116.752 95.875 116.626 95.875 116.5C95.875 113.981 97.8613 111.927 100.353 111.817Z" fill="white"/>
<path d="M119.282 118.236C119.452 116.021 118.9 113.774 117.693 111.888C117.678 111.864 117.663 111.841 117.648 111.817C120.139 111.927 122.125 113.982 122.125 116.5C122.125 116.626 122.12 116.752 122.11 116.876L122.098 117.028C122.076 117.305 121.893 117.543 121.631 117.635L121.487 117.686C120.779 117.935 120.042 118.121 119.282 118.236Z" fill="white"/>
<defs>
<filter id="filter0_d_5_1578" x="0" y="0" width="228" height="228" filterUnits="userSpaceOnUse" color-interpolation-filters="sRGB">
<feFlood flood-opacity="0" result="BackgroundImageFix"/>
<feColorMatrix in="SourceAlpha" type="matrix" values="0 0 0 0 0 0 0 0 0 0 0 0 0 0 0 0 0 0 127 0" result="hardAlpha"/>
<feOffset dx="5" dy="5"/>
<feGaussianBlur stdDeviation="7.5"/>
<feComposite in2="hardAlpha" operator="out"/>
<feColorMatrix type="matrix" values="0 0 0 0 0 0 0 0 0 0 0 0 0 0 0 0 0 0 0.2 0"/>
<feBlend mode="normal" in2="BackgroundImageFix" result="effect1_dropShadow_5_1578"/>
<feBlend mode="normal" in="SourceGraphic" in2="effect1_dropShadow_5_1578" result="shape"/>
</filter>
</defs>
</svg>
